<?xml version="1.0" encoding="utf-8"?>
<!-- Generator: Adobe Illustrator 27.5.0, SVG Export Plug-In . SVG Version: 6.00 Build 0)  -->
<svg version="1.1" id="Layer_1" xmlns="http://www.w3.org/2000/svg" xmlns:xlink="http://www.w3.org/1999/xlink" x="0px" y="0px"
	 viewBox="0 0 336.593 266.308" style="enable-background:new 0 0 336.593 266.308;" xml:space="preserve">
<g>
	<g>
		<path style="fill:#FFFFFF;" d="M41.654,138.015c-2.374,9.659,2.936,18.477,9.383,23.031l113.82,95.425
			c1.018,0.853,2.162,1.525,3.403,1.998c2.061,0.784,4.214,1.182,6.401,1.182c6.018,0,12.033-3.07,16.564-8.439
			c36.356-22.376,121.38-75.039,130.981-80.986c2.168-1.342,3.816-3.303,4.768-5.671c1.283-3.197,1.547-6.611,0.761-9.87
			c-0.428-1.777-1.275-3.457-2.452-4.859L229.451,35.739c-1.001-1.192-2.274-2.207-3.651-2.918c-0.22-0.117-0.44-0.231-0.667-0.342
			c-1.646-2-3.915-3.415-6.45-4.012c-3.102-0.729-6.424-0.163-9.11,1.554c-28.475,18.194-57.559,37.363-86.477,56.991L59.554,25.681
			c-3.712-3.584-9.267-4.344-13.773-1.97c-2.324-0.141-4.675,0.412-6.694,1.586c-0.64,0.372-1.243,0.803-1.8,1.284
			c-0.507,0.127-1.006,0.287-1.492,0.479c-2.858,0.294-5.547,1.55-7.612,3.564c-3.886,3.791-5.023,9.416-3.29,16.273L41.654,138.015
			z"/>
		<path style="fill:#F1F1F1;" d="M40.228,136.589c-2.374,9.659,2.936,18.478,9.383,23.031l113.819,95.424
			c1.017,0.854,2.162,1.526,3.403,1.999c2.061,0.785,4.214,1.182,6.401,1.182c6.018,0,12.033-3.071,16.564-8.44
			c36.356-22.376,121.379-75.038,130.981-80.985c2.168-1.344,3.816-3.304,4.768-5.671c1.283-3.198,1.547-6.611,0.761-9.87
			c-0.428-1.778-1.275-3.458-2.452-4.859L228.024,34.313c-1.001-1.192-2.279-2.198-3.651-2.919c-0.22-0.116-0.44-0.232-0.667-0.342
			c-1.648-2-3.915-3.416-6.45-4.012c-3.102-0.729-6.424-0.164-9.111,1.553c-28.474,18.195-57.559,37.364-86.476,56.993
			L58.127,24.255c-3.711-3.584-9.267-4.344-13.772-1.971c-2.324-0.141-4.675,0.412-6.695,1.587c-0.639,0.372-1.242,0.802-1.8,1.284
			c-0.506,0.128-1.005,0.288-1.492,0.481c-2.858,0.293-5.547,1.549-7.612,3.563c-3.886,3.79-5.023,9.416-3.291,16.273
			L40.228,136.589z"/>
		<path style="fill:#E2E2E2;" d="M38.802,135.163c-2.374,9.659,2.936,18.478,9.383,23.031l113.82,95.424
			c1.017,0.854,2.162,1.526,3.403,1.998c2.061,0.785,4.214,1.182,6.401,1.182c6.017,0,12.033-3.07,16.563-8.44
			c36.356-22.376,121.379-75.038,130.981-80.985c2.168-1.344,3.816-3.304,4.768-5.671c1.283-3.198,1.546-6.611,0.761-9.871
			c-0.428-1.777-1.275-3.457-2.452-4.858L226.599,32.887c-1.001-1.192-2.279-2.197-3.651-2.918
			c-0.221-0.116-0.441-0.232-0.667-0.342c-1.648-2-3.915-3.415-6.45-4.012c-3.102-0.729-6.425-0.163-9.111,1.554
			c-28.474,18.195-57.559,37.363-86.476,56.992L56.7,22.829c-3.711-3.584-9.266-4.344-13.772-1.971
			c-2.323-0.14-4.675,0.412-6.694,1.587c-0.639,0.372-1.242,0.802-1.8,1.284c-0.506,0.126-1.006,0.288-1.492,0.479
			c-2.858,0.295-5.547,1.55-7.613,3.565c-3.886,3.79-5.022,9.415-3.29,16.273L38.802,135.163z"/>
		<path style="fill:#D4D4D4;" d="M37.376,133.737c-2.374,9.659,2.936,18.477,9.383,23.031l113.82,95.424
			c1.017,0.853,2.161,1.526,3.403,1.999c2.061,0.784,4.213,1.182,6.401,1.182c6.017,0,12.033-3.071,16.563-8.44
			c36.355-22.375,121.379-75.038,130.981-80.985c2.168-1.343,3.816-3.304,4.768-5.671c1.283-3.198,1.546-6.612,0.761-9.87
			c-0.428-1.777-1.276-3.458-2.452-4.859L225.173,31.462c-1.001-1.193-2.279-2.199-3.651-2.919
			c-0.222-0.116-0.441-0.231-0.668-0.342c-1.646-2.002-3.915-3.416-6.449-4.012c-3.102-0.729-6.425-0.164-9.111,1.554
			c-28.474,18.194-57.559,37.363-86.476,56.991L55.274,21.402c-3.711-3.583-9.266-4.344-13.772-1.97
			c-2.323-0.141-4.675,0.412-6.694,1.586c-0.639,0.372-1.242,0.803-1.8,1.284c-0.507,0.126-1.006,0.287-1.492,0.48
			c-2.858,0.294-5.547,1.549-7.613,3.564c-3.886,3.79-5.022,9.416-3.29,16.273L37.376,133.737z"/>
		<path style="fill:#C5C5C5;" d="M35.95,132.311c-2.374,9.659,2.936,18.477,9.382,23.031l113.821,95.424
			c1.017,0.852,2.161,1.525,3.402,1.999c2.061,0.784,4.214,1.182,6.401,1.182c6.017,0,12.034-3.071,16.564-8.44
			c36.355-22.375,121.379-75.038,130.98-80.986c2.169-1.342,3.817-3.304,4.769-5.671c1.282-3.197,1.546-6.61,0.761-9.87
			c-0.428-1.776-1.276-3.456-2.452-4.858L223.747,30.035c-1.001-1.193-2.28-2.198-3.652-2.919c-0.221-0.116-0.441-0.231-0.667-0.342
			c-1.646-2.001-3.915-3.416-6.449-4.012c-3.103-0.729-6.425-0.163-9.111,1.553c-28.474,18.194-57.559,37.363-86.476,56.992
			L53.849,19.977c-3.712-3.584-9.267-4.344-13.772-1.971c-2.324-0.141-4.675,0.412-6.695,1.586c-0.639,0.372-1.242,0.803-1.8,1.285
			c-0.507,0.127-1.006,0.287-1.492,0.479c-2.858,0.293-5.547,1.55-7.612,3.563c-3.886,3.791-5.023,9.417-3.29,16.274L35.95,132.311z
			"/>
		<path style="fill:#B7B7B7;" d="M34.524,130.885c-2.374,9.659,2.936,18.477,9.383,23.031l113.82,95.424
			c1.017,0.852,2.161,1.525,3.402,1.998c2.061,0.784,4.214,1.181,6.401,1.181c6.018,0,12.034-3.07,16.564-8.44
			c36.355-22.376,121.379-75.038,130.98-80.986c2.169-1.343,3.817-3.303,4.768-5.671c1.283-3.197,1.547-6.611,0.761-9.87
			c-0.428-1.777-1.275-3.457-2.451-4.858L222.319,28.609c-1.001-1.193-2.279-2.198-3.651-2.918c-0.22-0.116-0.44-0.232-0.667-0.342
			c-1.646-2-3.915-3.416-6.449-4.012c-3.103-0.729-6.425-0.164-9.111,1.554c-28.475,18.194-57.558,37.363-86.477,56.992
			L52.423,18.55c-3.712-3.584-9.267-4.344-13.773-1.97c-2.324-0.142-4.675,0.412-6.695,1.586c-0.639,0.372-1.242,0.803-1.8,1.285
			c-0.506,0.126-1.005,0.287-1.492,0.479c-2.858,0.293-5.547,1.55-7.612,3.564c-3.886,3.79-5.023,9.415-3.291,16.273L34.524,130.885
			z"/>
		<path style="fill:#A8A8A8;" d="M33.097,129.458c-2.373,9.66,2.936,18.478,9.383,23.031l113.821,95.424
			c1.017,0.854,2.161,1.526,3.402,1.999c2.061,0.784,4.214,1.182,6.401,1.182c6.018,0,12.034-3.071,16.563-8.44
			c36.356-22.376,121.38-75.038,130.981-80.986c2.168-1.343,3.817-3.304,4.768-5.671c1.283-3.198,1.547-6.611,0.761-9.87
			c-0.428-1.778-1.275-3.458-2.452-4.858L220.894,27.183c-1.001-1.193-2.279-2.198-3.651-2.918c-0.221-0.116-0.44-0.232-0.667-0.342
			c-1.646-2-3.915-3.416-6.449-4.012c-3.102-0.73-6.425-0.164-9.111,1.553c-28.475,18.195-57.559,37.363-86.477,56.992
			L50.996,17.124c-3.711-3.583-9.266-4.343-13.772-1.97c-2.323-0.141-4.675,0.412-6.694,1.586c-0.639,0.372-1.242,0.803-1.8,1.284
			c-0.506,0.127-1.006,0.287-1.492,0.479c-2.858,0.294-5.547,1.55-7.613,3.564c-3.886,3.79-5.022,9.416-3.29,16.273L33.097,129.458z
			"/>
		<path style="fill:#9A9A9A;" d="M31.671,128.032c-2.373,9.659,2.936,18.477,9.382,23.031l113.82,95.424
			c1.018,0.854,2.162,1.526,3.403,1.998c2.061,0.785,4.214,1.182,6.401,1.182c6.018,0,12.033-3.071,16.564-8.44
			c36.356-22.376,121.38-75.039,130.981-80.986c2.168-1.343,3.816-3.304,4.768-5.671c1.283-3.197,1.547-6.611,0.761-9.869
			c-0.428-1.778-1.275-3.458-2.452-4.859L219.468,25.757c-1.001-1.193-2.279-2.199-3.651-2.919c-0.221-0.116-0.44-0.232-0.667-0.342
			c-1.646-2.001-3.915-3.416-6.45-4.012c-3.102-0.729-6.424-0.164-9.11,1.553c-28.475,18.194-57.559,37.364-86.477,56.992
			L49.57,15.698c-3.711-3.585-9.267-4.344-13.772-1.971c-2.324-0.141-4.675,0.412-6.694,1.586c-0.639,0.372-1.242,0.803-1.8,1.285
			c-0.507,0.126-1.006,0.287-1.492,0.479c-2.858,0.293-5.547,1.55-7.612,3.563c-3.886,3.791-5.023,9.416-3.29,16.274L31.671,128.032
			z"/>
		<path style="fill:#8B8B8B;" d="M30.245,126.606c-2.374,9.658,2.936,18.476,9.382,23.031l113.821,95.424
			c1.017,0.852,2.162,1.525,3.403,1.998c2.061,0.784,4.214,1.182,6.401,1.182c6.017,0,12.033-3.07,16.563-8.44
			c36.357-22.375,121.379-75.038,130.982-80.985c2.168-1.343,3.816-3.304,4.768-5.671c1.283-3.198,1.547-6.611,0.761-9.87
			c-0.428-1.777-1.275-3.457-2.452-4.859L218.042,24.33c-1.001-1.192-2.279-2.198-3.651-2.918c-0.221-0.116-0.441-0.231-0.667-0.342
			c-1.647-2.001-3.915-3.416-6.45-4.013c-3.102-0.729-6.424-0.163-9.111,1.554c-28.474,18.194-57.559,37.363-86.476,56.992
			L48.145,14.272c-3.712-3.583-9.267-4.344-13.773-1.971c-2.324-0.141-4.675,0.412-6.695,1.587c-0.639,0.372-1.242,0.803-1.8,1.285
			c-0.506,0.126-1.005,0.287-1.492,0.48c-2.858,0.293-5.547,1.55-7.612,3.563c-3.886,3.79-5.023,9.416-3.29,16.274L30.245,126.606z"
			/>
		<path style="fill:#7D7D7D;" d="M28.819,125.18c-2.374,9.659,2.936,18.478,9.383,23.031l113.82,95.424
			c1.017,0.853,2.162,1.525,3.404,1.997c2.06,0.785,4.213,1.183,6.4,1.183c6.017,0,12.033-3.071,16.563-8.441
			c36.356-22.376,121.38-75.038,130.981-80.985c2.168-1.343,3.817-3.304,4.768-5.671c1.283-3.197,1.547-6.611,0.761-9.87
			c-0.428-1.777-1.274-3.457-2.451-4.859L216.615,22.904c-1-1.193-2.279-2.198-3.651-2.919c-0.22-0.116-0.44-0.231-0.667-0.342
			c-1.648-2-3.915-3.415-6.45-4.012c-3.102-0.731-6.425-0.164-9.111,1.553c-28.474,18.194-57.559,37.363-86.476,56.992
			L46.718,12.846c-3.711-3.584-9.266-4.344-13.772-1.971c-2.323-0.141-4.675,0.412-6.694,1.587c-0.639,0.372-1.242,0.802-1.8,1.284
			c-0.506,0.126-1.005,0.287-1.492,0.479c-2.858,0.294-5.547,1.55-7.613,3.564c-3.886,3.79-5.022,9.416-3.29,16.273L28.819,125.18z"
			/>
		<path style="fill:#6E6E6E;" d="M27.393,123.753c-2.373,9.66,2.937,18.478,9.383,23.031l113.82,95.425
			c1.017,0.853,2.162,1.525,3.403,1.998c2.061,0.785,4.214,1.182,6.401,1.182c6.017,0,12.033-3.07,16.564-8.439
			c36.356-22.376,121.379-75.038,130.981-80.985c2.168-1.344,3.816-3.304,4.768-5.672c1.283-3.197,1.546-6.611,0.761-9.87
			c-0.428-1.777-1.276-3.457-2.452-4.859L215.189,21.479c-1.001-1.193-2.279-2.198-3.651-2.919
			c-0.222-0.116-0.441-0.232-0.667-0.342c-1.647-2-3.916-3.416-6.45-4.011c-3.103-0.731-6.425-0.165-9.111,1.553
			c-28.474,18.194-57.559,37.363-86.476,56.992L45.292,11.42c-3.711-3.584-9.266-4.344-13.772-1.971
			c-2.323-0.141-4.675,0.413-6.695,1.586c-0.639,0.372-1.242,0.803-1.8,1.284c-0.507,0.127-1.006,0.288-1.492,0.48
			c-2.858,0.293-5.548,1.55-7.613,3.564c-3.886,3.79-5.022,9.416-3.29,16.273L27.393,123.753z"/>
		<path style="fill:#606060;" d="M25.967,122.328c-2.374,9.66,2.936,18.477,9.382,23.031l113.821,95.424
			c1.017,0.853,2.161,1.526,3.402,1.999c2.061,0.784,4.214,1.182,6.401,1.182c6.018,0,12.034-3.071,16.564-8.44
			c36.355-22.375,121.379-75.037,130.981-80.985c2.168-1.343,3.816-3.304,4.768-5.671c1.282-3.198,1.546-6.611,0.761-9.87
			c-0.428-1.777-1.276-3.457-2.452-4.859L213.764,20.052c-1.001-1.192-2.275-2.207-3.652-2.918c-0.22-0.118-0.44-0.232-0.667-0.343
			c-1.646-2-3.915-3.416-6.449-4.012c-3.103-0.729-6.425-0.164-9.111,1.554c-28.474,18.194-57.559,37.363-86.476,56.991
			L43.865,9.994c-3.711-3.585-9.266-4.345-13.772-1.972c-2.324-0.141-4.675,0.412-6.694,1.587c-0.64,0.372-1.243,0.803-1.8,1.284
			c-0.507,0.127-1.006,0.288-1.492,0.479c-2.858,0.294-5.547,1.55-7.612,3.564c-3.886,3.79-5.023,9.416-3.29,16.272L25.967,122.328z
			"/>
	</g>
	<path style="fill:#FFFFFF;" d="M25.967,122.328c-2.374,9.66,2.936,18.477,9.382,23.031l113.821,95.424
		c1.017,0.853,2.161,1.526,3.402,1.999c2.061,0.784,4.214,1.182,6.401,1.182c6.018,0,12.034-3.071,16.564-8.44
		c36.355-22.375,121.379-75.037,130.981-80.985c2.168-1.343,3.816-3.304,4.768-5.671c1.282-3.198,1.546-6.611,0.761-9.87
		c-0.428-1.777-1.276-3.457-2.452-4.859L213.764,20.052c-1.001-1.192-2.275-2.207-3.652-2.918c-0.22-0.118-0.44-0.232-0.667-0.343
		c-1.646-2-3.915-3.416-6.449-4.012c-3.103-0.729-6.425-0.164-9.111,1.554c-28.474,18.194-57.559,37.363-86.476,56.991L43.865,9.994
		c-3.711-3.585-9.266-4.345-13.772-1.972c-2.324-0.141-4.675,0.412-6.694,1.587c-0.64,0.372-1.243,0.803-1.8,1.284
		c-0.507,0.127-1.006,0.288-1.492,0.479c-2.858,0.294-5.547,1.55-7.612,3.564c-3.886,3.79-5.023,9.416-3.29,16.272L25.967,122.328z"
		/>
	<g>
		<g>
			<g>
				<path style="fill:#912131;" d="M21.934,23.262l156.058,160.766l-38.803,25.618l-98.324-77.604c0,0-4.709-4.899-1.695-9.607
					L21.934,23.262z"/>
				<path style="fill:#5D0515;" d="M24.16,25.826l153.831,158.202l-38.803,25.618l-98.324-77.604c0,0-4.709-4.899-1.695-9.607
					l-0.428-14.333L24.16,25.826z"/>
				<path style="fill:#F4EBD4;" d="M200.313,26.071L58.055,129.435l-3.578-4.007c-1.113,1.412-2.287,2.78-3.479,4.128
					c0.226,0.552,0.456,0.944,0.69,1.162c0.468,0.38,1.041,0.841,1.664,1.372L201.334,30.278L200.313,26.071z"/>
				<path style="fill:#E2D5C0;" d="M24.476,22.415c0,0,15.441,75.496,15.491,98.354c0,0-2.494,4.774,0.049,9.2
					c2.543,4.427,7.817,4.71,11.396,3.391c3.579-1.318,4.427-3.295,4.427-3.295L200.726,27.065l-1.749-1.164L97.657,93.967
					L24.476,22.415z"/>
				<path style="fill:#F6EEE5;" d="M39.177,123.032c1.098-0.465,2.395-0.609,3.517-0.617c2.502-0.017,4.942,0.456,7.009,1.934
					c2.077,1.486,4.237,3.829,5.628,6.467c0.373-0.448,0.507-0.752,0.507-0.752L200.726,27.065l-1.749-1.535L98.773,92.628
					L24.476,22.415c0,0,15.441,75.496,15.491,98.354C39.967,120.769,39.501,121.662,39.177,123.032z"/>
				<path style="fill:#FFFFFF;" d="M29.599,44.13c-0.58-2.898-1.174-5.793-1.722-8.697c-0.487-2.579-0.947-5.232-1.932-7.677
					c-0.307-0.761-0.586-1.536-0.857-2.314c1.818,9.071,7.304,36.92,11.081,61.203c-0.137-2.216-0.286-4.432-0.52-6.635
					C34.372,67.948,31.979,56.012,29.599,44.13z"/>
				<path style="opacity:0.8;fill:#D3CDC7;" d="M198.977,25.529L98.773,92.628L28.819,26.52c0.607,3.603,1.382,7.176,2.147,10.751
					c1.041,4.868,1.892,9.731,2.522,14.669c0.945,7.396,2.004,14.778,3.038,22.162c0.988,7.054,2.238,14.116,2.872,21.212
					c0.321,3.6,0.347,7.208,0.378,10.82c0.019,2.256-0.013,4.514-0.218,6.757c0.259,3.03,0.404,5.695,0.409,7.877
					c0,0-0.466,0.894-0.79,2.264c1.098-0.465,2.395-0.609,3.517-0.617c2.502-0.017,4.942,0.456,7.009,1.934
					c2.077,1.486,4.237,3.829,5.628,6.467c0.373-0.448,0.507-0.752,0.507-0.752L200.726,27.065L198.977,25.529z"/>
				<path style="fill:#51000B;" d="M50.083,125.185c-1.893-1.469-3.984-2.202-6.372-2.305c-1.378-0.06-3.257-0.021-4.643,0.666
					c-0.334,1.766-0.364,4.14,0.947,6.423c2.543,4.427,7.817,4.71,11.396,3.391c1.83-0.675,2.942-1.52,3.597-2.186
					C53.787,128.764,51.912,126.604,50.083,125.185z"/>
				<path style="fill:#FFFBCE;" d="M47.244,122.319c-1.447-0.647-3.082-1.108-4.68-1.088c-1.046,0.013-2.333,0.261-3.161,0.979
					c-0.218,0.7-0.432,1.613-0.504,2.645c0.871-0.811,1.939-1.364,3.23-1.417c2.582-0.107,5.354,1.28,7.27,2.937
					c1.918,1.66,3.169,3.762,3.971,6.061c1.276-0.762,1.939-1.544,2.244-1.992C53.806,126.876,50.646,123.846,47.244,122.319z"/>
			</g>
			<path style="fill:#F6EEE5;" d="M51.016,124.987c0,0,64.05-46.196,149.262-100.648l5.356,8.926L56.259,134.139
				C56.259,134.139,56.074,128.857,51.016,124.987z"/>
			<path style="fill:#D9D3CC;" d="M51.016,124.987c0,0,64.05-46.196,149.262-100.648l5.356,8.926L56.259,134.139
				C56.259,134.139,56.074,128.857,51.016,124.987z"/>
			<g>
				<path style="fill:#912131;" d="M21.934,23.262l18.033,97.506l-1.646,3.079L20.804,28.631
					C20.804,28.631,19.108,22.415,21.934,23.262z"/>
				<path style="fill:#D43147;" d="M300.503,141.775L204.671,27.69c-0.169-0.087-0.334-0.183-0.507-0.261
					c-1.147-0.521-2.277-0.556-3.438-0.364L55.839,130.064c11.024,9.103,44.323,42.089,111.653,96.466
					c34.848-21.435,119.963-74.152,132.774-82.088C300.607,143.591,300.73,142.72,300.503,141.775z"/>
				<path style="fill:#C7293C;" d="M55.887,129.973c0,0-6.277,7.015-13.037,2.928c-6.759-4.085-2.883-12.132-2.883-12.132
					l-0.413,0.353c-6.597,8.498,2.982,14.767,2.982,14.767L156.8,231.684c5.934,2.26,10.83-5.369,10.83-5.369L55.887,129.973z"/>
			</g>
			<path style="fill:#F6EEE5;" d="M40.08,121.641c-0.668,0.32,4.464-25.888-10.712-101.766l76.77,66.728l-54.676,38.607
				C51.462,125.211,45.659,118.963,40.08,121.641z"/>
			<path style="fill:#FFFFFF;" d="M35.183,45.154c-0.507-2.924-0.999-5.854-1.648-8.751c-0.642-2.861-1.175-5.793-1.946-8.621
				c-0.628-2.303-1.168-4.65-1.917-6.915c-0.086-0.261-0.174-0.521-0.261-0.781c6.5,32.546,9.26,55.93,10.347,71.996
				c0.185-3.635,0.201-7.281-0.007-10.937C39.064,69.088,37.245,57.044,35.183,45.154z"/>
			<path style="opacity:0.8;fill:#C4BFB9;" d="M35.253,24.991c2.88,13.087,3.448,26.619,5.095,39.889
				c0.898,7.235,1.764,14.48,2.244,21.756c0.24,3.647,0.4,7.301,0.409,10.956c0.009,3.409,0.14,6.904-0.475,10.271
				c-0.491,2.688-1.27,5.355-2.239,7.942c-0.152,4.121-0.386,5.921-0.208,5.835c5.58-2.678,11.382,3.57,11.382,3.57l54.676-38.607
				L35.253,24.991z"/>
			<path style="fill:#F6EEE5;" d="M35.617,18.535c2.294,6.413,10.936,72.978,9.269,88.322c-0.53,4.886-1.933,9.734-3.679,14.362
				c5.207-1.442,10.256,3.991,10.256,3.991l54.676-38.607L35.617,18.535z"/>
			<path style="fill:#FFFFFF;" d="M45.186,84.686c-2.076-21.754-3.792-41.5-8.915-63.009c2.775,13.224,9.351,65.246,8.793,82.943
				C46.054,98.069,45.804,91.173,45.186,84.686z"/>
			<path style="opacity:0.3;fill:#D3CDC7;" d="M55.726,113.632c-2.181-1.799-4.297-3.792-5.763-6.239
				c-1.545-2.576-2.517-5.491-3.249-8.392c-0.931-3.69-1.608-7.438-2.229-11.198c0.594,8.355,0.812,15.266,0.4,19.054
				c-0.53,4.886-1.933,9.734-3.679,14.362c5.207-1.442,10.256,3.991,10.256,3.991l10.096-7.128
				C59.565,116.657,57.609,115.187,55.726,113.632z"/>
			<path style="opacity:0.6;fill:#D3CDC7;" d="M39.016,22.782c4.299,5.384,8.962,10.512,13.537,15.661
				c4.841,5.448,9.727,10.856,14.524,16.342c9.278,10.604,17.621,21.895,26.274,32.999c1.317,1.689,2.666,3.353,4.032,5l8.754-6.181
				L36.508,19.397C37.304,20.554,38.14,21.684,39.016,22.782z"/>
			<g>
				<path style="fill:#912131;" d="M167.63,226.315L55.887,129.973c0,0-5.67,6.328-12.034,3.451c0.415,0.241,0.865,0.48,1.36,0.715
					c8.481,4.016,10.043,1.785,14.283,6.248c4.239,4.464,97.525,82.796,97.525,82.796s4.714,6.483-1.893,7.099l1.672,1.402
					C162.733,233.943,167.63,226.315,167.63,226.315z"/>
			</g>
			<path style="fill:#912131;" d="M38.22,124.839c0,0-2.157,3.869,1.414,7.737c3.571,3.868,10.786,4.687,16.439-0.596
				c0,0-5.355,4.315-10.786,2.827C39.857,133.319,37.179,129.749,38.22,124.839z"/>
			<path style="fill:#912131;" d="M21.929,24.191c0,0-1.041,0.297-0.446,2.976c0.595,2.678,16.961,93.136,16.961,93.136
				L21.929,24.191z"/>
			<path style="fill:#912131;" d="M59.496,129.229l136.579-96.41c0,0,6.025-4.687,11.605,2.232c0,0-6.694-4.239-11.827,0.447
				L61.059,130.122L59.496,129.229z"/>
			<g style="opacity:0.7;">
				<path style="fill:#912131;" d="M300.503,141.775L206.842,30.274l-0.277,0.313c0,0,37.306,59.477,44.188,70.521
					c15.933,25.572-12.398,49.487-12.398,49.487s-62.583,48.884-72.849,55.579c-10.266,6.695-20.536-3.301-20.536-3.301
					l-75.732-60.841c17.333,15.814,48.5,44.313,98.255,84.496c34.848-21.435,119.963-74.152,132.774-82.088
					C300.607,143.591,300.73,142.72,300.503,141.775z"/>
			</g>
			<g>
				<path style="fill:#912131;" d="M300.503,141.775l-76.119-90.617c15.62,20.798,61.394,81.866,63.86,86.55
					c2.976,5.654-12.497,13.985-12.497,13.985s-98.195,63.083-103.254,65.761c-5.059,2.679-8.331,0.595-8.331,0.595l-26.185-16.068
					v0.299c9.015,7.539,18.836,15.624,29.516,24.25c34.848-21.435,119.963-74.152,132.774-82.088
					C300.607,143.591,300.73,142.72,300.503,141.775z"/>
			</g>
			<path style="fill:#D7D1CA;" d="M157.021,55.136c0,0-76.322,48.206-102.077,69.913C54.944,125.049,131.355,71.204,157.021,55.136z
				"/>
			<path style="fill:#D7D1CA;" d="M161.707,52.903c0,0-89.268,57.802-106.005,73.869C55.702,126.772,136.042,68.972,161.707,52.903z
				"/>
			<path style="fill:#D7D1CA;" d="M172.196,47.431c0,0-98.864,65.389-115.603,81.457C56.594,128.887,146.532,63.499,172.196,47.431z
				"/>
		</g>
		<path style="fill:#912131;" d="M50.468,140.317l102.773,86.34c0,0,3.435,1.717,2.698,0.245
			c-0.735-1.472-99.339-83.396-99.339-83.396s-2.943-1.961-1.472-2.452c1.472-0.49,1.717-1.718-0.736-1.963
			C51.941,138.846,45.317,137.619,50.468,140.317z"/>
	</g>
</g>
</svg>
